<?xml version="1.0" encoding="utf-8"?>
<!-- Generator: Adobe Illustrator 17.0.0, SVG Export Plug-In . SVG Version: 6.00 Build 0)  -->
<!DOCTYPE svg PUBLIC "-//W3C//DTD SVG 1.1//EN" "http://www.w3.org/Graphics/SVG/1.1/DTD/svg11.dtd">
<svg version="1.1" id="Layer_1" xmlns="http://www.w3.org/2000/svg" xmlns:xlink="http://www.w3.org/1999/xlink" x="0px" y="0px"
	 width="227.999px" height="228px" viewBox="0 0 227.999 228" enable-background="new 0 0 227.999 228" xml:space="preserve">
<path fill="#E97C24" d="M114,0C51.139,0,0,51.14,0,114c0,62.861,51.139,114,114,114s114-51.139,114-114
	C227.999,51.14,176.86,0,114,0z M180.385,177.43c-0.223-0.425-0.37-0.856-0.628-1.278c-2.153-3.514-4.977-7.223-8.433-9.219
	c-10.534-6.083-21.432-11.564-32.372-16.901c-6.56-3.2-9.109-7.894-6.441-14.702c1.045-2.667,3.022-4.997,4.731-7.367
	c9.451-13.114,14.487-27.539,13.081-43.866c-1.554-18.04-14.885-31.891-31.787-33.129c-20.933-1.53-35.794,8.5-39.977,27.806
	c-4.13,19.056,1.815,35.818,13.395,50.867c7.309,9.499,5.621,15.632-4.993,20.813c-10.559,5.155-20.979,10.725-30.917,16.975
	c-4.032,2.536-7.01,5.791-8.803,9.591C31.681,160.544,22.065,138.397,22.065,114c0-50.694,41.242-91.936,91.935-91.936
	S205.935,63.306,205.935,114C205.935,138.596,196.171,160.915,180.385,177.43z"/>
</svg>
